<svg id="hiring" xmlns="http://www.w3.org/2000/svg" width="19.985" height="20" viewBox="0 0 19.985 20">
  <path id="Path_7" data-name="Path 7" d="M36.229-484.718a9.687,9.687,0,0,0-4.406,1.53,9.483,9.483,0,0,0-3.687,4.669,8.57,8.57,0,0,0-.539,3.244,7.946,7.946,0,0,0,.333,2.529,9.445,9.445,0,0,0,7.347,6.7,10.542,10.542,0,0,0,2.9.083,9.461,9.461,0,0,0,4.664-1.946l.346-.276,1.723,1.723,1.727,1.727.469-.473.473-.469L45.86-467.4l-1.727-1.727.333-.425a9.313,9.313,0,0,0,1.955-5.76,8.825,8.825,0,0,0-.465-2.95,9.45,9.45,0,0,0-7.4-6.356A14.559,14.559,0,0,0,36.229-484.718Zm1.824,1.442a8.048,8.048,0,0,1,6.685,5.655,8.068,8.068,0,0,1-1.837,7.851,8.248,8.248,0,0,1-4.274,2.38,8.051,8.051,0,0,1-8.8-4.292,8.057,8.057,0,0,1,3.446-10.731A8.136,8.136,0,0,1,38.053-483.275Z" transform="translate(-27.598 484.732)" fill="#92929d"/>
  <path id="Path_8" data-name="Path 8" d="M177.909-406.643a3.066,3.066,0,0,0-2.363,2.192,7.183,7.183,0,0,0-.009,2.148,3.257,3.257,0,0,0,2.03,2.613,2.027,2.027,0,0,0,.855.123,1.937,1.937,0,0,0,.82-.114,2.5,2.5,0,0,0,1-.614,4.07,4.07,0,0,0,1.162-3.112,3.171,3.171,0,0,0-.281-1.547,2.9,2.9,0,0,0-1.8-1.583A3.611,3.611,0,0,0,177.909-406.643Zm1.223,1.46a2.007,2.007,0,0,1,.793.807,4.612,4.612,0,0,1,.057,1.828,2.346,2.346,0,0,1-.969,1.486,1.717,1.717,0,0,1-1.184,0,2.025,2.025,0,0,1-.745-.85,3.054,3.054,0,0,1-.276-1.6c.013-.609.022-.662.136-.89a2.079,2.079,0,0,1,.636-.71,1.465,1.465,0,0,1,.912-.2A1.29,1.29,0,0,1,179.132-405.183Z" transform="translate(-168.979 410.094)" fill="#92929d"/>
  <path id="Path_9" data-name="Path 9" d="M127.827-222.887a4.817,4.817,0,0,0-1.824.715,5.5,5.5,0,0,0-1,.96,10.007,10.007,0,0,0,1,.763c.039.022.153-.061.359-.263a2.837,2.837,0,0,1,1.815-.85c.245-.031,1.157-.039,2.31-.026,2.139.022,2.144.022,2.784.351a2.741,2.741,0,0,1,.71.535l.355.355.522-.364a2.96,2.96,0,0,0,.517-.408,3.128,3.128,0,0,0-.75-.829,4.1,4.1,0,0,0-1.236-.706c-.688-.25-.859-.263-3.248-.259C128.937-222.909,127.9-222.9,127.827-222.887Z" transform="translate(-120.73 234.391)" fill="#92929d"/>
</svg>
