<svg xmlns="http://www.w3.org/2000/svg" width="768.014" height="639.306" viewBox="0 0 768.014 639.306">
  <g id="Group_2" data-name="Group 2" transform="translate(-473.285 -181.624)">
    <path id="Path_1" data-name="Path 1" d="M418.14,172.83C511.713,176.1,565.117,267.2,593.9,356.3c28.571,88.454,37.769,192.921-35.85,249.671C479.32,666.657,368.763,650.478,288.7,591.563c-78.456-57.732-117.4-155.952-88.635-249.016,30.076-97.293,116.3-173.271,218.075-169.717" transform="translate(282.677 94.222)" fill="#6eabdd"/>
    <path id="Path_2" data-name="Path 2" d="M406.465,157.353c63.233-5.494,110.69,51.447,156.156,95.735,46.358,45.156,105.718,91.523,102.44,156.156-3.224,63.544-66.75,102.726-117.518,141.077-41.794,31.572-88.795,51.1-141.077,54.272-56.5,3.431-114.1-1.986-159.32-36.029-52.1-39.222-106.449-94.412-100.164-159.32,6.129-63.289,82.671-86.9,128.3-131.189,44.324-43.027,69.647-115.354,131.189-120.7" transform="translate(576.108 24.64)" fill="#673091"/>
    <path id="Path_3" data-name="Path 3" d="M408.29,238.126c49.892-4.3,102.927-40.213,145.843-14.409,42.825,25.749,37.785,88.582,55.334,135.37,18.679,49.8,59.764,94.788,50.646,147.188-9.511,54.662-49.854,102.614-98.694,128.942-46.1,24.853-100.757,6.245-153.129,6.808-53.157.571-108.671,21.6-155.538-3.492-49.39-26.44-86.819-76.884-97.378-131.9C145.3,454.146,175.5,404.51,198.59,356.317c20.051-41.842,40.612-86.179,81.032-108.961,38.4-21.642,84.752-5.448,128.668-9.23" transform="translate(532.082 170.117)" fill="#90246d"/>
  </g>
</svg>
